<svg width="63" height="61" viewBox="0 0 63 61" fill="none" xmlns="http://www.w3.org/2000/svg">
<g clip-path="url(#clip0_1_145)">
<path d="M29.1305 41.6102L28.603 54.5552L28.533 55.3302L13.758 54.3102C12.8694 54.2188 12.0381 53.8283 11.4005 53.2027C10.7049 52.5697 10.1481 51.7993 9.76547 50.9402L9.74797 50.8977C9.49538 50.2907 9.32553 49.6525 9.24297 49.0002L9.23797 48.9627C9.16139 48.1814 9.21205 47.3928 9.38797 46.6277L9.37797 46.6752C9.55464 45.8069 9.69213 45.1619 9.79047 44.7402C10.0455 43.8202 10.303 43.0727 10.6005 42.3427L10.548 42.4902C10.9463 41.4119 11.1688 40.7927 11.2155 40.6327C13.0471 40.911 19.0171 41.2377 29.1255 41.6127L29.1305 41.6102ZM15.513 20.9977L21.8455 34.3302L16.6755 31.0952C15.3037 32.6503 14.0312 34.2902 12.8655 36.0052L12.7555 36.1777C11.8755 37.4352 11.0255 38.8777 10.2905 40.3827L10.2055 40.5752C9.64213 41.8135 9.17964 42.9219 8.81797 43.9002C8.53701 44.5913 8.32352 45.308 8.18047 46.0402L8.16797 46.1177L8.02797 46.8552L1.34547 34.2977C0.954223 33.7151 0.735016 33.0341 0.712969 32.3327V32.3252C0.666778 31.7563 0.740011 31.1841 0.927969 30.6452L0.920469 30.6752L1.20047 30.0427C2.02547 28.566 3.36214 26.3652 5.21047 23.4402L0.292969 20.4027L15.513 20.9977ZM58.813 39.1852L52.2105 51.8127C51.9474 52.4646 51.5065 53.0294 50.938 53.4427L50.928 53.4502C50.4863 53.7984 49.9719 54.0428 49.423 54.1652L49.398 54.1702L48.7655 54.3102C47.1005 54.4735 44.533 54.611 41.063 54.7227L41.343 60.5002L33.253 47.5902L40.6805 34.8552L40.9255 40.9402C44.2922 41.3089 47.686 41.3641 51.063 41.1052L50.878 41.1177C52.9738 40.9841 55.043 40.5764 57.033 39.9052L56.863 39.9552L58.813 39.1852ZM31.208 6.6802C30.108 8.15687 27.0005 13.2577 21.8855 21.9827L10.743 15.4052L10.0755 14.9927L17.9905 2.4702C18.4905 1.7252 19.2155 1.1677 20.068 0.890204L20.0955 0.882704C21.0041 0.551602 21.9764 0.432737 22.938 0.535204L22.9105 0.532704C23.538 0.587704 24.118 0.735204 24.6555 0.960204L24.618 0.945204C25.1855 1.1752 25.6655 1.4252 26.1205 1.7102L26.0805 1.6877C26.6255 2.0527 27.103 2.4352 27.543 2.8527L27.538 2.8477C28.1013 3.36437 28.5238 3.76854 28.8055 4.0602C29.0871 4.35187 29.5096 4.81437 30.073 5.4477C30.6413 6.08104 31.0196 6.49187 31.208 6.6802ZM54.248 17.4777L61.7055 30.2477C62.13 31.0825 62.2829 32.0292 62.143 32.9552L62.1455 32.9302C62.0109 33.8673 61.6758 34.7644 61.163 35.5602L61.178 35.5352C60.8573 36.0195 60.4692 36.4555 60.0255 36.8302L60.0155 36.8377C59.6093 37.1889 59.1773 37.509 58.723 37.7952L58.678 37.8202C58.193 38.1077 57.628 38.3677 57.038 38.5727L56.9705 38.5927C56.2555 38.851 55.7055 39.0385 55.3205 39.1552C54.9355 39.2719 54.3313 39.436 53.508 39.6477L51.8905 40.0602C51.0921 38.3719 47.9846 33.2594 42.568 24.7227L53.578 17.8627L54.248 17.4777ZM49.218 9.52771L54.213 6.6077L46.4755 19.7302L31.733 19.0277L37.0455 16.0027C36.2585 13.9073 35.3323 11.8669 34.273 9.8952L34.408 10.1702C33.6113 8.62157 32.6996 7.13489 31.6805 5.7227L31.7505 5.8252C30.9421 4.73354 30.1855 3.7952 29.4805 3.0102C28.9817 2.42717 28.4366 1.88541 27.8505 1.3902L27.8305 1.3727L27.233 0.915204L41.4705 0.950204C42.1803 0.87385 42.897 1.00589 43.533 1.3302L43.513 1.3202C44.0555 1.5652 44.513 1.9052 44.888 2.3227L44.8905 2.3277L45.278 2.8552C46.193 4.27854 47.5063 6.5027 49.218 9.52771Z" fill="white"/>
</g>
<defs>
<clipPath id="clip0_1_145">
<rect width="62.5" height="60" fill="white" transform="translate(0.285156 0.5)"/>
</clipPath>
</defs>
</svg>
