<svg width="76" height="60" viewBox="0 0 76 60" fill="none" xmlns="http://www.w3.org/2000/svg">
<path d="M40.5633 10.4313C40.7034 8.49118 41.3441 6.62052 42.4229 5.00194C43.5018 3.38335 44.9819 2.07215 46.7187 1.19632C48.4556 0.320501 50.3898 -0.0900177 52.3327 0.0048424C54.2756 0.0997025 56.1606 0.6967 57.8039 1.73756C57.9918 1.86048 58.1431 2.03174 58.2419 2.23334C58.3407 2.43494 58.3834 2.65943 58.3655 2.88324C58.3476 3.10704 58.2698 3.32189 58.1402 3.50521C58.0105 3.68854 57.8339 3.83356 57.6289 3.92506C54.7723 5.21028 52.3474 7.29285 50.6456 9.92265C48.9438 12.5524 48.0373 15.6176 48.0352 18.7501C48.0352 19.1157 48.0352 19.4813 48.0727 19.8407C48.0899 20.0678 48.0447 20.2954 47.942 20.4987C47.8393 20.702 47.683 20.8735 47.49 20.9944C47.297 21.1154 47.0746 21.1813 46.8468 21.1851C46.619 21.1888 46.3946 21.1302 46.1977 21.0157C44.356 19.9623 42.8498 18.4095 41.8528 16.5367C40.8559 14.6639 40.4088 12.5473 40.5633 10.4313ZM75.5352 42.6907C75.5396 44.1192 75.1439 45.5205 74.3927 46.7356C73.6415 47.9507 72.565 48.9311 71.2852 49.5657L71.1477 49.6282L59.0133 54.7969C58.8934 54.8497 58.7689 54.8916 58.6414 54.9219L38.6414 59.9219C38.4433 59.9729 38.2397 59.9991 38.0352 60H5.53516C4.20907 60 2.9373 59.4733 1.99962 58.5356C1.06194 57.5979 0.535156 56.3261 0.535156 55.0001V42.5001C0.535156 41.174 1.06194 39.9022 1.99962 38.9645C2.9373 38.0268 4.20907 37.5001 5.53516 37.5001H14.5008L21.5695 30.4282C22.4964 29.4971 23.5986 28.759 24.8124 28.2564C26.0263 27.7538 27.3277 27.4968 28.6414 27.5001H44.2852C45.6057 27.4999 46.9091 27.7987 48.0978 28.3739C49.2864 28.9492 50.3295 29.786 51.1487 30.8217C51.968 31.8574 52.5422 33.0651 52.8283 34.3543C53.1144 35.6434 53.105 36.9807 52.8008 38.2657L65.8758 35.2594C67.014 34.958 68.2063 34.922 69.3607 35.1541C70.5151 35.3862 71.6007 35.8803 72.534 36.5983C73.4672 37.3163 74.2232 38.239 74.7435 39.2953C75.2638 40.3515 75.5347 41.5132 75.5352 42.6907ZM70.5352 42.6907C70.5348 42.2773 70.4391 41.8696 70.2557 41.4992C70.0723 41.1288 69.806 40.8056 69.4774 40.5547C69.1489 40.3039 68.767 40.1321 68.3613 40.0527C67.9556 39.9733 67.5371 39.9884 67.1383 40.0969L67.0414 40.1219L46.1039 44.9376C45.9203 44.9786 45.7327 44.9995 45.5445 45.0001H35.5352C34.8721 45.0001 34.2362 44.7367 33.7674 44.2678C33.2985 43.799 33.0352 43.1631 33.0352 42.5001C33.0352 41.837 33.2985 41.2011 33.7674 40.7323C34.2362 40.2634 34.8721 40.0001 35.5352 40.0001H44.2852C45.2797 40.0001 46.2335 39.605 46.9368 38.9017C47.6401 38.1984 48.0352 37.2446 48.0352 36.2501C48.0352 35.2555 47.6401 34.3017 46.9368 33.5984C46.2335 32.8951 45.2797 32.5001 44.2852 32.5001H28.6414C27.9846 32.498 27.3338 32.6264 26.7271 32.8781C26.1203 33.1297 25.5696 33.4994 25.107 33.9657L18.0352 41.0344V55.0001H37.7227L57.232 50.1219L69.107 45.0657C69.5393 44.838 69.9009 44.4962 70.1526 44.0775C70.4044 43.6589 70.5367 43.1792 70.5352 42.6907ZM53.0352 18.7501C53.0352 20.9751 53.695 23.1502 54.9311 25.0002C56.1673 26.8503 57.9243 28.2922 59.98 29.1437C62.0356 29.9952 64.2976 30.218 66.4799 29.7839C68.6622 29.3498 70.6668 28.2783 72.2401 26.705C73.8134 25.1317 74.8849 23.1271 75.319 20.9448C75.7531 18.7625 75.5303 16.5005 74.6788 14.4449C73.8273 12.3892 72.3854 10.6322 70.5353 9.39602C68.6853 8.15986 66.5102 7.50006 64.2852 7.50006C61.3015 7.50006 58.44 8.68532 56.3302 10.7951C54.2204 12.9049 53.0352 15.7664 53.0352 18.7501Z" fill="white"/>
</svg>
