<svg width="81" height="81" viewBox="0 0 81 81" fill="none" xmlns="http://www.w3.org/2000/svg">
<path d="M41.9602 9.89376C41.7841 9.68819 41.5657 9.52316 41.3198 9.41002C41.074 9.29687 40.8066 9.23828 40.5359 9.23828C40.2653 9.23828 39.9979 9.29687 39.752 9.41002C39.5062 9.52316 39.2877 9.68819 39.1117 9.89376C34.1648 15.6797 18.0352 35.6828 18.0352 50.5C18.0352 64.3078 26.7289 73 40.5352 73C54.3414 73 63.0352 64.3078 63.0352 50.5C63.0352 35.6828 46.9055 15.6797 41.9602 9.89376ZM43.0352 64.875C42.7348 64.8757 42.4388 64.8042 42.1718 64.6666C41.9049 64.529 41.675 64.3292 41.5013 64.0842C41.3276 63.8392 41.2154 63.5561 41.174 63.2586C41.1325 62.9612 41.1632 62.6581 41.2633 62.375C41.3911 62.0056 41.6323 61.6859 41.9524 61.4615C42.2725 61.237 42.6552 61.1193 43.0461 61.125C45.528 61.1196 47.9066 60.1314 49.6616 58.3764C51.4165 56.6215 52.4048 54.2428 52.4102 51.7609C52.4044 51.3701 52.5222 50.9873 52.7466 50.6672C52.971 50.3471 53.2907 50.106 53.6602 49.9781C53.9433 49.878 54.2463 49.8474 54.5438 49.8888C54.8412 49.9302 55.1244 50.0425 55.3694 50.2162C55.6144 50.3898 55.8141 50.6198 55.9517 50.8867C56.0893 51.1536 56.1608 51.4497 56.1602 51.75C56.1564 55.2298 54.7724 58.5661 52.3118 61.0267C49.8512 63.4873 46.515 64.8713 43.0352 64.875Z" fill="white"/>
</svg>
